<svg width="170" height="66" viewBox="0 0 170 66" fill="none" xmlns="http://www.w3.org/2000/svg">
<path fill-rule="evenodd" clip-rule="evenodd" d="M65.1155 56.2275C73.3682 56.2275 80.0583 49.5374 80.0583 41.2847C80.0583 33.0319 73.3682 26.3418 65.1155 26.3418C56.8628 26.3418 50.1726 33.0319 50.1726 41.2847C50.1726 49.5374 56.8628 56.2275 65.1155 56.2275ZM65.1155 60.2275C75.5773 60.2275 84.0583 51.7465 84.0583 41.2847C84.0583 30.8228 75.5773 22.3418 65.1155 22.3418C54.6536 22.3418 46.1726 30.8228 46.1726 41.2847C46.1726 51.7465 54.6536 60.2275 65.1155 60.2275Z" fill="#F0A000"/>
<path d="M27.582 33.469C27.3116 34.8117 26.0039 35.681 24.6612 35.4106C23.3185 35.1402 22.4492 33.8325 22.7196 32.4898C22.99 31.1471 24.2977 30.2778 25.6404 30.5482C26.9831 30.8186 27.8524 32.1263 27.582 33.469Z" fill="#506DFA"/>
<path d="M33.5964 38.721C33.326 40.0637 32.0183 40.9329 30.6756 40.6625C29.3329 40.3921 28.4636 39.0844 28.734 37.7417C29.0044 36.399 30.3121 35.5298 31.6548 35.8002C32.9975 36.0706 33.8668 37.3783 33.5964 38.721Z" fill="#506DFA"/>
<path d="M20.0029 35.9827C19.7325 37.3254 18.4248 38.1947 17.0821 37.9243C15.7394 37.6539 14.8701 36.3462 15.1405 35.0035C15.4109 33.6607 16.7186 32.7915 18.0613 33.0619C19.404 33.3323 20.2733 34.64 20.0029 35.9827Z" fill="#506DFA"/>
<path d="M26.0175 41.2366C25.7471 42.5793 24.4394 43.4486 23.0967 43.1782C21.754 42.9078 20.8848 41.6001 21.1552 40.2574C21.4256 38.9147 22.7333 38.0454 24.076 38.3158C25.4187 38.5862 26.2879 39.8939 26.0175 41.2366Z" fill="#506DFA"/>
<path d="M32.0319 46.4885C31.7615 47.8313 30.4538 48.7005 29.1111 48.4301C27.7684 48.1597 26.8992 46.852 27.1696 45.5093C27.44 44.1666 28.7477 43.2973 30.0904 43.5677C31.4331 43.8381 32.3023 45.1458 32.0319 46.4885Z" fill="#506DFA"/>
<path d="M18.4384 43.7503C18.168 45.093 16.8603 45.9622 15.5176 45.6918C14.1749 45.4214 13.3057 44.1137 13.5761 42.771C13.8465 41.4283 15.1542 40.5591 16.4969 40.8295C17.8396 41.0999 18.7088 42.4076 18.4384 43.7503Z" fill="#506DFA"/>
<path d="M24.4531 49.0042C24.1827 50.3469 22.875 51.2161 21.5323 50.9457C20.1896 50.6753 19.3203 49.3676 19.5907 48.0249C19.8611 46.6822 21.1688 45.813 22.5115 46.0834C23.8542 46.3538 24.7235 47.6615 24.4531 49.0042Z" fill="#506DFA"/>
<path fill-rule="evenodd" clip-rule="evenodd" d="M7.08517 30.9491C5.24023 33.872 4.17261 37.3345 4.17261 41.0464C4.17261 51.5082 12.6536 59.9892 23.1155 59.9892C33.5773 59.9892 42.0583 51.5082 42.0583 41.0464C42.0583 30.5845 33.5773 22.1035 23.1155 22.1035C18.8672 22.1035 14.9456 23.502 11.7858 25.8637L12.6489 30.3815C15.3448 27.7354 19.0396 26.1035 23.1155 26.1035C31.3682 26.1035 38.0583 32.7937 38.0583 41.0464C38.0583 49.2991 31.3682 55.9892 23.1155 55.9892C14.8628 55.9892 8.17261 49.2991 8.17261 41.0464C8.17261 40.0484 8.27044 39.0733 8.45704 38.13L7.08517 30.9491ZM11.7079 31.3941C10.6197 32.6789 9.74464 34.15 9.13733 35.7528L7.97373 29.6621C8.80481 28.5585 9.75374 27.5486 10.8018 26.6512L11.7079 31.3941Z" fill="#F0A000"/>
<path d="M3.31365 5.26869C3.14042 4.36199 3.73503 3.48653 4.64174 3.31331C5.54844 3.14009 6.4239 3.73469 6.59712 4.6414L12.9386 37.8352C13.1118 38.7419 12.5172 39.6174 11.6105 39.7906C10.7038 39.9638 9.82836 39.3692 9.65514 38.4625L3.31365 5.26869Z" fill="#F0A000"/>
<path d="M111.755 33.469C111.484 34.8117 110.177 35.681 108.834 35.4106C107.491 35.1402 106.622 33.8325 106.892 32.4898C107.163 31.1471 108.47 30.2778 109.813 30.5482C111.156 30.8186 112.025 32.1263 111.755 33.469Z" fill="#506DFA"/>
<path d="M117.769 38.721C117.499 40.0637 116.191 40.9329 114.848 40.6625C113.505 40.3921 112.636 39.0844 112.907 37.7417C113.177 36.399 114.485 35.5298 115.827 35.8002C117.17 36.0706 118.039 37.3783 117.769 38.721Z" fill="#506DFA"/>
<path d="M104.175 35.9827C103.905 37.3254 102.597 38.1947 101.255 37.9243C99.912 37.6539 99.0427 36.3462 99.3131 35.0035C99.5835 33.6607 100.891 32.7915 102.234 33.0619C103.577 33.3323 104.446 34.64 104.175 35.9827Z" fill="#506DFA"/>
<path d="M110.19 41.2366C109.92 42.5793 108.612 43.4486 107.269 43.1782C105.927 42.9078 105.057 41.6001 105.328 40.2574C105.598 38.9147 106.906 38.0454 108.249 38.3158C109.591 38.5862 110.461 39.8939 110.19 41.2366Z" fill="#506DFA"/>
<path d="M116.205 46.4885C115.934 47.8313 114.626 48.7005 113.284 48.4301C111.941 48.1597 111.072 46.852 111.342 45.5093C111.613 44.1666 112.92 43.2973 114.263 43.5677C115.606 43.8381 116.475 45.1458 116.205 46.4885Z" fill="#506DFA"/>
<path d="M102.611 43.7503C102.341 45.093 101.033 45.9622 99.6902 45.6918C98.3475 45.4214 97.4783 44.1137 97.7487 42.771C98.0191 41.4283 99.3268 40.5591 100.669 40.8295C102.012 41.0999 102.881 42.4076 102.611 43.7503Z" fill="#506DFA"/>
<path d="M108.626 49.0042C108.355 50.3469 107.048 51.2161 105.705 50.9457C104.362 50.6753 103.493 49.3676 103.763 48.0249C104.034 46.6822 105.341 45.813 106.684 46.0834C108.027 46.3538 108.896 47.6615 108.626 49.0042Z" fill="#506DFA"/>
<path fill-rule="evenodd" clip-rule="evenodd" d="M91.2578 30.9491C89.4128 33.872 88.3452 37.3345 88.3452 41.0464C88.3452 51.5082 96.8262 59.9892 107.288 59.9892C117.75 59.9892 126.231 51.5082 126.231 41.0464C126.231 30.5845 117.75 22.1035 107.288 22.1035C103.04 22.1035 99.1182 23.502 95.9584 25.8637L96.8215 30.3815C99.5174 27.7354 103.212 26.1035 107.288 26.1035C115.541 26.1035 122.231 32.7937 122.231 41.0464C122.231 49.2991 115.541 55.9892 107.288 55.9892C99.0354 55.9892 92.3452 49.2991 92.3452 41.0464C92.3452 40.0484 92.443 39.0733 92.6296 38.13L91.2578 30.9491ZM95.8805 31.3941C94.7923 32.6789 93.9172 34.15 93.3099 35.7528L92.1463 29.6621C92.9774 28.5585 93.9264 27.5486 94.9744 26.6512L95.8805 31.3941Z" fill="#F0A000"/>
<path d="M87.4863 5.26869C87.313 4.36199 87.9076 3.48653 88.8143 3.31331C89.7211 3.14009 90.5965 3.73469 90.7697 4.6414L97.1112 37.8352C97.2844 38.7419 96.6898 39.6174 95.7831 39.7906C94.8764 39.9638 94.001 39.3692 93.8277 38.4625L87.4863 5.26869Z" fill="#F0A000"/>
<path fill-rule="evenodd" clip-rule="evenodd" d="M162.361 46.0824C162.924 44.5089 163.231 42.8135 163.231 41.0464C163.231 32.7937 156.541 26.1035 148.288 26.1035C140.035 26.1035 133.345 32.7937 133.345 41.0464C133.345 49.2991 140.035 55.9892 148.288 55.9892C151.954 55.9892 155.311 54.6692 157.911 52.4785L158.745 56.8438C155.749 58.8315 152.154 59.9892 148.288 59.9892C137.826 59.9892 129.345 51.5082 129.345 41.0464C129.345 30.5845 137.826 22.1035 148.288 22.1035C158.75 22.1035 167.231 30.5845 167.231 41.0464C167.231 45.25 165.862 49.1339 163.545 52.2762L162.383 46.1931C162.376 46.156 162.368 46.1191 162.361 46.0824ZM158.876 51.5907C159.953 50.5089 160.866 49.2631 161.573 47.8938L162.629 53.4225C161.765 54.4232 160.798 55.3324 159.744 56.1338L158.876 51.5907Z" fill="#F0A000"/>
<path d="M157.324 43.464C157.151 42.5573 157.745 41.6818 158.652 41.5086C159.559 41.3354 160.434 41.93 160.607 42.8367L163.774 59.4125C163.947 60.3192 163.353 61.1947 162.446 61.3679C161.539 61.5411 160.664 60.9465 160.491 60.0398L157.324 43.464Z" fill="#F0A000"/>
</svg>
