<svg width="26" height="26" viewBox="0 0 26 26" fill="none" xmlns="http://www.w3.org/2000/svg">
<circle opacity="0.05" r="12.375" transform="matrix(1 0 0 -1 13 13)" fill="url(#paint0_linear)" fill-opacity="0.9"/>
<path opacity="0.24" d="M2.95061 7.81281C2.42754 7.54281 1.77998 7.74658 1.55599 8.29094C0.915168 9.84826 0.597494 11.5237 0.626866 13.2149C0.662422 15.2622 1.20544 17.2687 2.20723 19.0545C3.20903 20.8403 4.6383 22.3496 6.36692 23.4471C7.79489 24.3538 9.39027 24.956 11.0533 25.2209C11.6346 25.3135 12.1461 24.8671 12.1883 24.28C12.2306 23.6929 11.7872 23.1883 11.2076 23.0853C9.89634 22.8522 8.63959 22.3651 7.50951 21.6476C6.07866 20.7391 4.89559 19.4898 4.06636 18.0116C3.23713 16.5334 2.78765 14.8725 2.75822 13.1779C2.73498 11.8395 2.97432 10.513 3.45895 9.27251C3.67316 8.72422 3.47369 8.0828 2.95061 7.81281Z" fill="white"/>
<path opacity="0.24" d="M10.6342 1.94105C10.5111 1.36543 9.94277 0.994144 9.37988 1.16634C7.99699 1.58939 6.69882 2.25163 5.54458 3.12288C5.07476 3.47752 5.04174 4.15557 5.43548 4.59315C5.82921 5.03073 6.50024 5.06114 6.97635 4.71499C7.84486 4.08353 8.80736 3.59253 9.82839 3.26005C10.3881 3.07779 10.7574 2.51667 10.6342 1.94105Z" fill="white"/>
<path opacity="0.24" d="M23.3719 17.5079C23.9117 17.7426 24.5443 17.4962 24.7316 16.9382C25.2676 15.3417 25.4732 13.6489 25.3315 11.9634C25.16 9.92294 24.4848 7.95698 23.3666 6.24169C22.2483 4.5264 20.7219 3.1154 18.9242 2.13516C17.4391 1.32541 15.8072 0.83053 14.1303 0.676722C13.5441 0.622959 13.0634 1.10236 13.0603 1.691C13.0572 2.27964 13.5331 2.75363 14.1182 2.81789C15.4421 2.96329 16.7284 3.36588 17.9037 4.0067C19.3918 4.81808 20.6552 5.98603 21.5809 7.40585C22.5065 8.82567 23.0653 10.453 23.2073 12.1419C23.3195 13.4758 23.1688 14.8153 22.7677 16.0852C22.5904 16.6465 22.832 17.2733 23.3719 17.5079Z" fill="white"/>
<circle opacity="0.8" r="5.625" transform="matrix(1 0 0 -1 13 13)" fill="white"/>
<defs>
<linearGradient id="paint0_linear" x1="6.49688" y1="-5.86857" x2="38.158" y2="22.4533" gradientUnits="userSpaceOnUse">
<stop stop-color="white"/>
<stop offset="1" stop-color="white"/>
</linearGradient>
</defs>
</svg>
